<svg xmlns="http://www.w3.org/2000/svg" width="256" height="256" viewBox="0 0 100 100"><rect width="100" height="100" rx="20" fill="#6ea8e7"></rect><path d="M93.38 6.40L93.38 6.40Q93.38 14.23 88.29 22.78Q83.21 31.33 74.25 37.67Q65.30 44.02 55.76 45.64L55.76 45.64Q50.27 56.70 47.84 61.12L47.84 61.12L45.95 64.17Q63.77 68.59 75.47 77.59L75.47 77.59Q81.41 82.17 83.48 88.84L83.48 88.84Q84.56 92.25 84.56 94.69Q84.56 97.12 83.61 98.78Q82.67 100.44 81.41 101.08Q80.15 101.70 79.61 101.70Q79.07 101.70 79.07 101.25Q79.07 100.81 80.10 98.60Q81.14 96.39 81.14 93.42Q81.14 90.45 79.88 86.86Q78.62 83.25 75.20 80.24Q71.78 77.22 65.70 74.57Q59.63 71.92 55.17 70.79Q50.72 69.67 43.25 68.23L43.25 68.23Q35.60 78.94 27.32 82.89L27.32 82.89Q22.37 85.33 18.54 85.33Q14.72 85.33 11.75 83.80L11.75 83.80Q6.62 81.28 6.62 76.14Q6.62 71.02 13.37 67.14L13.37 67.14Q21.02 62.65 34.07 62.65L34.07 62.65Q38.75 62.65 42.53 63.37L42.53 63.37Q46.58 57.06 51.98 46.00L51.98 46.00Q51.44 46.00 50.99 46.00L50.99 46.00Q45.32 46.00 40.46 44.11Q35.60 42.22 32.72 38.98L32.72 38.98Q28.94 34.75 28.94 29.44L28.94 29.44Q28.94 26.65 30.33 23.41Q31.73 20.17 36.54 16.84Q41.36 13.51 48.74 11.80L48.74 11.80Q49.91 11.53 50.72 11.53Q51.53 11.53 51.71 11.98Q51.89 12.43 50.99 12.79Q50.09 13.15 48.92 13.33L48.92 13.33Q45.05 13.78 41.72 15.94L41.72 15.94Q35.96 19.63 33.71 27.28L33.71 27.28Q33.17 29.08 33.17 30.74Q33.17 32.41 33.80 34.75Q34.43 37.09 36.50 39.56Q38.57 42.04 42.12 43.03Q45.68 44.02 48.33 44.02Q50.99 44.02 53.24 43.75L53.24 43.75L60.89 24.49Q68.81 4.15 79.79-0.53L79.79-0.53Q82.67-1.70 85.41-1.70Q88.16-1.70 90.63 0.05Q93.11 1.81 93.29 4.33L93.29 4.33Q93.38 5.41 93.38 6.40ZM89.60 6.48L89.60 6.48Q89.60 3.06 86.45 3.06L86.45 3.06Q81.86 3.06 75.29 11.08L75.29 11.08Q70.16 17.47 65.44 26.51Q60.71 35.55 57.02 43.20L57.02 43.20Q69.53 40.42 79.56 29.48Q89.60 18.55 89.60 6.48ZM39.74 67.69L39.74 67.69Q35.33 66.70 30.65 66.70Q25.97 66.70 21.02 68.05L21.02 68.05Q10.67 70.75 8.87 75.70L8.87 75.70Q8.51 76.59 8.51 77.41L8.51 77.41Q8.51 79.75 11.07 81.23Q13.64 82.72 16.70 82.72L16.70 82.72Q20.93 82.72 25.88 80.38L25.88 80.38Q33.35 76.78 39.74 67.69Z" fill="#fff"></path></svg>